<svg xmlns="http://www.w3.org/2000/svg" aria-hidden="true" style="position:absolute;width:0;height:0;overflow:hidden"><defs><symbol id="icon-path4" viewBox="0 0 30 32"><path d="M22.248 19.81c-.305-.152-2.286-1.067-2.59-1.219s-.61-.152-.914.152c-.305.305-.914 1.219-1.219 1.524-.152.305-.457.305-.762.152-1.067-.457-2.133-1.067-3.048-1.829A17.516 17.516 0 0 1 11.582 16c-.152-.305 0-.61.152-.762s.305-.457.61-.61c.152-.152.305-.457.305-.61.152-.152.152-.457 0-.61s-.914-1.981-1.219-2.743c-.152-1.067-.457-1.067-.762-1.067h-.762c-.305 0-.762.305-.914.457-.914.914-1.371 1.981-1.371 3.2.152 1.371.61 2.743 1.524 3.962 1.676 2.438 3.81 4.419 6.4 5.638.762.305 1.371.61 2.133.762.762.305 1.524.305 2.438.152 1.067-.152 1.981-.914 2.59-1.829.305-.61.305-1.219.152-1.829l-.61-.305zm3.809-13.867a15.175 15.175 0 0 0-21.486 0c-4.876 4.876-5.79 12.343-2.438 18.286L0 32l8.076-2.133c2.286 1.219 4.724 1.829 7.162 1.829A15.023 15.023 0 0 0 30.324 16.61c.152-3.962-1.524-7.771-4.267-10.667zm-4.114 21.333c-1.981 1.219-4.267 1.981-6.705 1.981-2.286 0-4.419-.61-6.4-1.676l-.457-.305-4.724 1.219 1.219-4.571-.305-.457C.914 17.372 2.742 9.753 8.685 5.943s13.562-1.829 17.219 3.962c3.657 5.943 1.981 13.714-3.962 17.371z"/></symbol><symbol id="icon-check" viewBox="0 0 32 32"><path stroke-linecap="round" stroke-linejoin="round" stroke-width="3" d="m26.182 8.364-14 14L5.818 16"/></symbol><symbol id="icon-facebook" viewBox="0 0 32 32"><path stroke-linecap="round" stroke-linejoin="round" stroke-width="2.909" d="M24 1.455h-4.364a7.273 7.273 0 0 0-7.273 7.273v4.364H7.999v5.818h4.364v11.636h5.818V18.91h4.364L24 13.092h-5.818V8.728a1.455 1.455 0 0 1 1.455-1.455h4.364V1.455z"/></symbol><symbol id="icon-instagram" viewBox="0 0 32 32"><path stroke-linecap="round" stroke-linejoin="round" stroke-width="2.667" d="M22.667 2.667H9.334a6.667 6.667 0 0 0-6.667 6.667v13.333a6.667 6.667 0 0 0 6.667 6.667h13.333a6.667 6.667 0 0 0 6.667-6.667V9.334a6.667 6.667 0 0 0-6.667-6.667z"/><path stroke-linecap="round" stroke-linejoin="round" stroke-width="2.667" d="M21.333 15.16a5.329 5.329 0 0 1-2.878 5.546 5.337 5.337 0 0 1-6.169-.992 5.33 5.33 0 0 1 1.316-8.505 5.336 5.336 0 0 1 6.228.962 5.328 5.328 0 0 1 1.504 2.989zM23.333 8.667h.013"/></symbol><symbol id="icon-mail" viewBox="0 0 32 32"><path stroke-linecap="round" stroke-linejoin="round" stroke-width="2.667" d="M5.333 5.333h21.333c1.467 0 2.667 1.2 2.667 2.667v16c0 1.467-1.2 2.667-2.667 2.667H5.333A2.675 2.675 0 0 1 2.666 24V8c0-1.467 1.2-2.667 2.667-2.667z"/><path stroke-linecap="round" stroke-linejoin="round" stroke-width="2.667" d="M29.333 8 16 17.333 2.667 8"/></symbol><symbol id="icon-map" viewBox="0 0 32 32"><path stroke-linecap="round" stroke-linejoin="round" stroke-width="2.667" d="M28 13.333c0 9.333-12 17.333-12 17.333s-12-8-12-17.333a12.003 12.003 0 0 1 12-12 12.003 12.003 0 0 1 12 12z"/><path stroke-linecap="round" stroke-linejoin="round" stroke-width="2.667" d="M16 17.333a4 4 0 1 0 0-8 4 4 0 0 0 0 8z"/></symbol><symbol id="icon-youtube-1" viewBox="0 0 32 32"><path stroke-linecap="round" stroke-linejoin="round" stroke-width="2.667" d="M30.053 8.56a3.703 3.703 0 0 0-2.586-2.667C25.174 5.333 16 5.333 16 5.333s-9.173 0-11.467.613c-.628.178-1.197.518-1.652.986s-.777 1.048-.935 1.681a38.606 38.606 0 0 0-.613 7.053c-.015 2.383.19 4.762.613 7.107.175.613.504 1.171.958 1.619s1.014.772 1.629.941c2.293.613 11.467.613 11.467.613s9.173 0 11.467-.613a3.708 3.708 0 0 0 2.586-2.667 38.57 38.57 0 0 0 .613-7 38.663 38.663 0 0 0-.613-7.107z"/><path stroke-linecap="round" stroke-linejoin="round" stroke-width="2.667" d="m13 20.027 7.667-4.36L13 11.307v8.72z"/></symbol></defs></svg>